# xmcd
#
# Track frame offsets: 
#        150
#        9497
#        25566
#        43432
#        57602
#        71972
#        97463
#        115783
#        134860
#        151536
#        168707
#        184137
#        204234
#
# Disc length: 3121 seconds
#
# Revision: 0
# Processed by: cddbd v1.5.2PL0 Copyright (c) Steve Scherf et al.
# Submitted via: ExactAudioCopy v0.99pb5
#
DISCID=c10c2f0d
DTITLE=Fred Chapellier - Electric Fingers
DYEAR=2012
DGENRE=Blues
TTITLE0=Hot Rod Cadillac Automobile
TTITLE1=He's Walking
TTITLE2=Something About You
TTITLE3=Yield Not To Temptation
TTITLE4=Cold As Ice
TTITLE5=Marie Laveaux
TTITLE6=Sweet Soul Music
TTITLE7=Gary's Gone
TTITLE8=Living In A Dream
TTITLE9=I Found You
TTITLE10=Memphis Connection Part 2
TTITLE11=I Wouldn't Treat A Dog
TTITLE12=Blues For Roy
EXTD=
EXTT0=
EXTT1=
EXTT2=
EXTT3=
EXTT4=
EXTT5=
EXTT6=
EXTT7=
EXTT8=
EXTT9=
EXTT10=
EXTT11=
EXTT12=
PLAYORDER=
